<svg xmlns="http://www.w3.org/2000/svg" xmlns:xlink="http://www.w3.org/1999/xlink" width="289.16" height="268.5" viewBox="0 0 289.16 268.5"><defs><linearGradient id="a" x1="-0.493" y1="0.261" x2="0.58" y2="0.261" gradientUnits="objectBoundingBox"><stop offset="0" stop-color="#2b3990"/><stop offset="1" stop-color="#2bb673"/></linearGradient><linearGradient id="b" x1="-0.866" y1="0.55" x2="0.326" y2="0.55" xlink:href="#a"/><linearGradient id="c" x1="-0.004" y1="-0.41" x2="1.289" y2="-0.41" xlink:href="#a"/><linearGradient id="d" x1="1.662" y1="1.718" x2="2.968" y2="1.718" xlink:href="#a"/></defs><g transform="translate(-95.839 -241.983)"><g transform="translate(117.405 242.489)"><path d="M187.23,456.89l74.78-92.43,82.66,22.85-23.72,96.66s-89.72,33.09-89.87,30.28S187.23,456.89,187.23,456.89Z" transform="translate(-185.197 -289.407)" stroke="#000" stroke-miterlimit="10" stroke-width="1" fill="url(#a)"/><path d="M347.68,514.42,293.2,436.91l54.52-48.63,79.09,44.55s-6.04,69.95-8.69,69.21S347.68,514.42,347.68,514.42Z" transform="translate(-185.197 -289.407)" stroke="#000" stroke-miterlimit="10" stroke-width="1" fill="url(#b)"/><path d="M421.4,319.64l-7.29,131.07-87.09,11.72L286.76,349.12s57.93-74.39,59.84-71.45S421.4,319.64,421.4,319.64Z" transform="translate(-185.197 -277.585)" stroke="#000" stroke-miterlimit="10" stroke-width="1" fill="url(#c)"/><path d="M239.42,291.22l96.89,58.8L319.14,425.6l-97.68-12.95s-38.91-77.14-36.12-77.51S239.42,291.22,239.42,291.22Z" transform="translate(-185.197 -277.585)" stroke="#000" stroke-miterlimit="10" stroke-width="1" fill="url(#d)"/></g><path d="M0,0H288.318V154.55H0Z" transform="translate(96.26 355.932)" fill="none"/><path d="M36.211-25.98H12.094V-4.605H36.211v-8.3H23.766v-4.148H41.977v9.844q0,4.184-1.564,5.7T34.488,0H13.816Q9.457,0,7.893-1.494T6.328-7.207V-23.273q0-4.184,1.582-5.713t5.906-1.529H34.488q4.254,0,5.871,1.512T41.977-23.7v.879l-5.766.984ZM60.328,0H54.6V-30.445h5.73ZM88.98-25.98V0H83.25V-25.98H68.836v-4.535h34.629v4.535ZM117.7,0h-5.73V-30.445h5.73Zm40.922-25.98h-21.41v7.91H156.8q4.289,0,5.854,1.494t1.564,5.713v3.656q0,4.219-1.529,5.713T156.8,0H138.234q-4.359,0-5.924-1.494t-1.564-5.713v-.844l5.273-1.09v4.535h23.027v-8.578H139.395q-4.324,0-5.871-1.494t-1.547-5.713v-2.883q0-4.184,1.547-5.713t5.871-1.529h16.98q4.254,0,5.871,1.477t1.617,5.2v.738l-5.238,1.125ZM182.6-4.605H208.09V-25.98H182.6Zm-5.766-18.668q0-4.184,1.582-5.713t5.906-1.529h22.043q4.324,0,5.906,1.529t1.582,5.713V-7.207q0,4.184-1.564,5.7T206.367,0H184.324q-4.395,0-5.941-1.494t-1.547-5.713ZM227.25,0V-30.516h30.375v4.535H233.016v9.422H246.9v4.465H233.016V0ZM281-25.98V0h-5.73V-25.98H260.859v-4.535h34.629v4.535Z" transform="translate(89.511 453.095)" fill="#fff"/><path d="M0,0H148.044V42.86H0Z" transform="translate(166.4 446.586)" fill="none"/><path d="M3.891-8.285q0,.223.023.609.023.633.023.809V0H2.355V-10.172H3.938L9-3.574l4.652-6.6h1.781V0H13.652V-6.867q0-.375.029-.727t.088-.68a8,8,0,0,1-.34.85,2.858,2.858,0,0,1-.328.557L9.188-1.605h-.5L4.629-6.82a4.007,4.007,0,0,1-.4-.633A5.573,5.573,0,0,1,3.891-8.285ZM18.5,0l5.883-10.172h1.758L32.168,0H30.082L28.758-2.379H21.727L20.426,0Zm4.031-3.844h5.4L25.23-8.684ZM35.215,0V-10.172h1.922v4.359l6.422-4.359H46.23l-7.512,4.91L47.063,0H43.922L37.137-4.559V0Zm14.5,0V-10.172H59.953V-8.66h-8.32v2.613h5.016v1.512H51.633v3.047h8.414V0ZM76.09,0V-4.441l-5.309-5.73h2.332l4.055,4.406,3.867-4.406h2.25L78-4.441V0ZM87.844-1.535h8.5V-8.66h-8.5ZM85.922-7.758a2.637,2.637,0,0,1,.527-1.9,2.859,2.859,0,0,1,1.969-.51h7.348a2.859,2.859,0,0,1,1.969.51,2.637,2.637,0,0,1,.527,1.9V-2.4A2.634,2.634,0,0,1,97.74-.5a2.881,2.881,0,0,1-1.975.5H88.418a2.9,2.9,0,0,1-1.98-.5,2.652,2.652,0,0,1-.516-1.9Zm18.727-2.414v8.637h7.43v-8.637h1.945V-2.4A2.632,2.632,0,0,1,113.5-.5a2.905,2.905,0,0,1-1.975.5h-6.3a2.881,2.881,0,0,1-1.975-.5,2.634,2.634,0,0,1-.521-1.9v-7.77ZM126.07-8.684h-5.414V-5.4h5.414a1.3,1.3,0,0,0,.867-.211,1.133,1.133,0,0,0,.223-.82V-7.652a1.1,1.1,0,0,0-.234-.8A1.205,1.205,0,0,0,126.07-8.684ZM118.734,0V-10.172h8.18a2.363,2.363,0,0,1,1.635.463,1.975,1.975,0,0,1,.5,1.506V-5.93a1.937,1.937,0,0,1-.5,1.488,2.384,2.384,0,0,1-1.635.457h-1.348L130.055,0h-2.566l-4.055-3.984h-2.777V0Zm25.816,0-3.937-10.172h1.992l2.813,7.77,3-7.77h1.266l2.93,7.77,2.813-7.77h1.723L153.258,0h-1.406l-2.859-7.582-3,7.582Zm17.2-1.535h8.5V-8.66h-8.5Zm-1.922-6.223a2.637,2.637,0,0,1,.527-1.9,2.859,2.859,0,0,1,1.969-.51h7.348a2.859,2.859,0,0,1,1.969.51,2.637,2.637,0,0,1,.527,1.9V-2.4a2.634,2.634,0,0,1-.521,1.9,2.881,2.881,0,0,1-1.975.5h-7.348a2.9,2.9,0,0,1-1.98-.5,2.652,2.652,0,0,1-.516-1.9Zm24.141-.926h-5.414V-5.4h5.414a1.3,1.3,0,0,0,.867-.211,1.133,1.133,0,0,0,.223-.82V-7.652a1.1,1.1,0,0,0-.234-.8A1.205,1.205,0,0,0,183.973-8.684ZM176.637,0V-10.172h8.18a2.363,2.363,0,0,1,1.635.463,1.975,1.975,0,0,1,.5,1.506V-5.93a1.937,1.937,0,0,1-.5,1.488,2.384,2.384,0,0,1-1.635.457h-1.348L187.957,0h-2.566l-4.055-3.984h-2.777V0Zm14.707,0V-10.172h1.922v8.637h7.91V0Zm19.277-8.66h-3.727v7.125h3.727a5.744,5.744,0,0,0,3.533-.838,3.329,3.329,0,0,0,1.049-2.76,3.215,3.215,0,0,0-1.061-2.7A5.814,5.814,0,0,0,210.621-8.66Zm.211-1.512a13.021,13.021,0,0,1,2.443.193,4.88,4.88,0,0,1,1.635.592A4.528,4.528,0,0,1,216.539-7.6a5.331,5.331,0,0,1,.586,2.49,4.662,4.662,0,0,1-1.559,3.838A7.391,7.391,0,0,1,210.832,0h-5.859V-10.172Z" transform="translate(130.704 473.516)" fill="#fff"/></g></svg>